<svg xmlns="http://www.w3.org/2000/svg" viewBox="0 0 39.721 36.001">
  <defs>
    <style>
      .cls-1 {
        fill: #b5b5b5;
      }
    </style>
  </defs>
  <g id="healthcode" transform="translate(-5.033 -9.166)">
    <path id="Path_911" data-name="Path 911" class="cls-1" d="M41.2,12.742a12.209,12.209,0,0,0-16.325-.847A12.187,12.187,0,0,0,8.037,29.389a1.324,1.324,0,0,0,.362.393l.172.181L23,44.391a2.647,2.647,0,0,0,3.746,0L41.2,29.976a12.222,12.222,0,0,0,0-17.234ZM39.306,28.105,24.874,42.538l-12.491-12.5h.882a1.324,1.324,0,0,0,1.147-.662L17.973,23.2l3.089,9.4a1.324,1.324,0,0,0,1.125.882h.128a1.324,1.324,0,0,0,1.152-.671L27.2,26.195l1.871,3.194a1.324,1.324,0,0,0,1.143.653h3.945a1.324,1.324,0,1,0,0-2.647h-3.19l-2.647-4.487a1.3,1.3,0,0,0-1.152-.653,1.324,1.324,0,0,0-1.143.671l-3.362,6L19.579,19.55a1.324,1.324,0,0,0-2.4-.247l-4.681,8.092H9.8A9.539,9.539,0,0,1,23.921,14.6a1.324,1.324,0,0,0,.935.388h0a1.324,1.324,0,0,0,.935-.388A9.553,9.553,0,1,1,39.306,28.105Z" transform="translate(0)"/>
  </g>
</svg>
