<svg xmlns="http://www.w3.org/2000/svg" viewBox="0 0 46.786 40.944">
  <defs>
    <style>
      .cls-1 {
        fill: #b5b5b5;
        stroke: #b5b5b5;
      }
    </style>
  </defs>
  <g id="messaging" transform="translate(-3.5 -5.5)">
    <g id="Group_309" data-name="Group 309" transform="translate(4 6)">
      <path id="Path_906" data-name="Path 906" class="cls-1" d="M9.723,1026.362A5.732,5.732,0,0,0,4,1032.085v20.985a5.732,5.732,0,0,0,5.723,5.723h3.1l5.7,7.154a.954.954,0,0,0,1.49,0l5.693-7.154H44.063a5.732,5.732,0,0,0,5.723-5.723v-20.985a5.732,5.732,0,0,0-5.723-5.723Zm0,1.908h34.34a3.786,3.786,0,0,1,3.816,3.816v20.985a3.786,3.786,0,0,1-3.816,3.816H25.242a.954.954,0,0,0-.745.358l-5.235,6.58-5.235-6.58a.954.954,0,0,0-.745-.358H9.723a3.786,3.786,0,0,1-3.816-3.816v-20.985A3.786,3.786,0,0,1,9.723,1028.27Zm2.78,7.631a.955.955,0,0,0,.1,1.908H25.109a.954.954,0,0,0,0-1.908H12.6q-.049,0-.1,0Zm0,5.631a.955.955,0,1,0,.1,1.908H32.255a.954.954,0,1,0,0-1.908H12.6c-.032,0-.065,0-.1,0Zm0,5.815a.955.955,0,0,0,.1,1.908H29.368a.954.954,0,0,0,0-1.908H12.6a.924.924,0,0,0-.1,0Zm20.985,0a.955.955,0,0,0,.1,1.908h3.134a.954.954,0,0,0,0-1.908H33.585a.924.924,0,0,0-.1,0Z" transform="translate(-4 -1026.362)"/>
    </g>
  </g>
</svg>
