<svg xmlns="http://www.w3.org/2000/svg" viewBox="0 0 85.725 90.766">
  <defs>
    <style>
      .cls-1 {
        fill: #b5b5b5;
      }

      .cls-2, .cls-3 {
        stroke: none;
      }

      .cls-3 {
        fill: #f8f9fb;
      }
    </style>
  </defs>
  <g id="noun_Add_User_1140987" data-name="noun_Add User_1140987" transform="translate(-2.854 -0.102)">
    <g id="Group_262" data-name="Group 262">
      <g id="Path_884" data-name="Path 884" class="cls-1">
        <path class="cls-2" d="M 66.60400390625 43.80199813842773 C 54.62479400634766 43.80199813842773 44.87900543212891 34.05620956420898 44.87900543212891 22.07699966430664 C 44.87900543212891 10.0977897644043 54.62479400634766 0.3519996702671051 66.60400390625 0.3519996702671051 C 78.58321380615234 0.3519996702671051 88.32900238037109 10.0977897644043 88.32900238037109 22.07699966430664 C 88.32900238037109 34.05620956420898 78.58321380615234 43.80199813842773 66.60400390625 43.80199813842773 Z M 66.60500335693359 4.810999870300293 C 57.08394241333008 4.810999870300293 49.33800506591797 12.55649948120117 49.33800506591797 22.07699966430664 C 49.33800506591797 31.59749984741211 57.08394241333008 39.34299850463867 66.60500335693359 39.34299850463867 C 76.12661743164062 39.34299850463867 83.87300109863281 31.59749984741211 83.87300109863281 22.07699966430664 C 83.87300109863281 12.55649948120117 76.12661743164062 4.810999870300293 66.60500335693359 4.810999870300293 Z"/>
        <path class="cls-3" d="M 66.60400390625 0.6020011901855469 C 54.76264190673828 0.6020011901855469 45.12899017333984 10.23564147949219 45.12899017333984 22.07699966430664 C 45.12899017333984 33.91835784912109 54.76264190673828 43.55199813842773 66.60400390625 43.55199813842773 C 78.44535827636719 43.55199813842773 88.07900238037109 33.91835784912109 88.07900238037109 22.07699966430664 C 88.07900238037109 10.23564147949219 78.44535827636719 0.6020011901855469 66.60400390625 0.6020011901855469 M 66.60500335693359 39.59299850463867 C 56.94609069824219 39.59299850463867 49.08799743652344 31.73535919189453 49.08799743652344 22.07699966430664 C 49.08799743652344 12.41864013671875 56.94609069824219 4.561000823974609 66.60500335693359 4.561000823974609 C 76.26446533203125 4.561000823974609 84.12300109863281 12.41864013671875 84.12300109863281 22.07699966430664 C 84.12300109863281 31.73535919189453 76.26446533203125 39.59299850463867 66.60500335693359 39.59299850463867 M 66.60400390625 0.1020011901855469 C 78.72200012207031 0.1020011901855469 88.57900238037109 9.959999084472656 88.57900238037109 22.07699966430664 C 88.57900238037109 34.19400024414062 78.72100830078125 44.05199813842773 66.60400390625 44.05199813842773 C 54.48699188232422 44.05199813842773 44.62899017333984 34.19400024414062 44.62899017333984 22.07699966430664 C 44.62899017333984 9.959999084472656 54.48600769042969 0.1020011901855469 66.60400390625 0.1020011901855469 Z M 66.60500335693359 39.09299850463867 C 75.98799133300781 39.09299850463867 83.62300109863281 31.45999908447266 83.62300109863281 22.07699966430664 C 83.62300109863281 12.6929988861084 75.98800659179688 5.061000823974609 66.60500335693359 5.061000823974609 C 57.22100067138672 5.061000823974609 49.58799743652344 12.6929988861084 49.58799743652344 22.07699966430664 C 49.58799743652344 31.45999908447266 57.22100067138672 39.09299850463867 66.60500335693359 39.09299850463867 Z"/>
      </g>
      <g id="Path_885" data-name="Path 885" class="cls-1">
        <path class="cls-2" d="M 63.18400192260742 90.61800384521484 C 62.30717086791992 90.61800384521484 61.5088005065918 90.10205078125 61.15004348754883 89.30355072021484 C 59.86310195922852 86.43946075439453 58.12476348876953 83.80059051513672 55.98332214355469 81.46024322509766 C 53.85475158691406 79.13397979736328 51.38560104370117 77.16519927978516 48.64445114135742 75.60861206054688 L 48.52197265625 75.53904724121094 L 48.39902114868164 75.60778045654297 C 47.49250030517578 76.11447143554688 46.72692108154297 76.50267028808594 45.98969268798828 76.82946014404297 C 45.70820236206055 76.95629119873047 45.39653015136719 77.02300262451172 45.08700180053711 77.02300262451172 C 44.20689010620117 77.02300262451172 43.40708160400391 76.50382232666016 43.04939270019531 75.70033264160156 C 42.80704116821289 75.15559387207031 42.79098129272461 74.54936981201172 43.00418090820312 73.99339294433594 C 43.21745300292969 73.43721771240234 43.63487243652344 72.99757385253906 44.17955017089844 72.75544738769531 C 45.25968551635742 72.275390625 46.32651519775391 71.70451354980469 47.35036468505859 71.0587158203125 C 47.36512756347656 71.04979705810547 47.37918090820312 71.04076385498047 47.39308166503906 71.03178405761719 C 47.40727996826172 71.02261352539062 47.42110061645508 71.01332092285156 47.43669128417969 71.00510406494141 L 47.44568252563477 71.00035095214844 L 47.45425033569336 70.99490356445312 C 50.98805999755859 68.74542999267578 53.92942047119141 65.61282348632812 55.96034240722656 61.93574142456055 C 58.00844192504883 58.22756958007812 59.09100341796875 54.03213119506836 59.09100341796875 49.80300140380859 C 59.09100341796875 48.57392883300781 60.09048080444336 47.57400131225586 61.31900024414062 47.57400131225586 C 62.54807281494141 47.57400131225586 63.54800033569336 48.57392883300781 63.54800033569336 49.80300140380859 C 63.54800033569336 54.21229934692383 62.58713150024414 58.47000122070312 60.69207000732422 62.45782089233398 C 58.85103225708008 66.33200073242188 56.13283157348633 69.82791137695312 52.83135223388672 72.56761169433594 L 52.57249069213867 72.78241729736328 L 52.85282135009766 72.96833801269531 C 58.30061340332031 76.58142852783203 62.57607269287109 81.59757232666016 65.21697998046875 87.47447204589844 C 65.46150970458984 88.01837158203125 65.47946929931641 88.62460327148438 65.26757049560547 89.18154907226562 C 65.05588531494141 89.73796844482422 64.64009094238281 90.17845153808594 64.09679412841797 90.42185211181641 C 63.80751037597656 90.55207061767578 63.50054168701172 90.61800384521484 63.18400192260742 90.61800384521484 Z"/>
        <path class="cls-3" d="M 61.31900024414062 47.82400512695312 C 60.22833251953125 47.82400512695312 59.34100341796875 48.71177673339844 59.34100341796875 49.80300140380859 C 59.34100341796875 54.07429504394531 58.24766159057617 58.31153106689453 56.17918014526367 62.05661010742188 C 54.12810134887695 65.77019500732422 51.15749359130859 68.93393707275391 47.5885009765625 71.20579528808594 L 47.57176208496094 71.21649932861328 L 47.55373001098633 71.22600555419922 C 47.5449333190918 71.23088836669922 47.53701019287109 71.23643493652344 47.52878189086914 71.24174499511719 C 47.51346969604492 71.25164031982422 47.49800109863281 71.26155090332031 47.48183059692383 71.27137756347656 C 46.44838333129883 71.92308807373047 45.37151336669922 72.49925994873047 44.28109359741211 72.98388671875 C 43.79752349853516 73.19886016845703 43.42693328857422 73.58915710449219 43.23760223388672 74.08290100097656 C 43.04829406738281 74.57658386230469 43.06258392333984 75.11492919921875 43.27777862548828 75.59866333007812 C 43.59535217285156 76.31204223632812 44.30551147460938 76.77299499511719 45.08700180053711 76.77299499511719 C 45.36139297485352 76.77299499511719 45.63754272460938 76.71391296386719 45.88839340209961 76.60089874267578 C 46.61829376220703 76.27736663818359 47.37730026245117 75.8924560546875 48.27705001831055 75.38955688476562 L 48.52294158935547 75.25212097167969 L 48.76790237426758 75.39122009277344 C 51.53183364868164 76.96074676513672 54.02151107788086 78.94587707519531 56.16776275634766 81.29147338867188 C 58.32720184326172 83.65149688720703 60.0802116394043 86.31266784667969 61.37808227539062 89.20109558105469 C 61.69657135009766 89.90995788574219 62.40543365478516 90.36799621582031 63.18400192260742 90.36799621582031 C 63.46493148803711 90.36799621582031 63.73737335205078 90.30947875976562 63.99458312988281 90.19369506835938 C 64.47688293457031 89.97763061523438 64.84599304199219 89.58659362792969 65.03391265869141 89.09265899658203 C 65.2220458984375 88.59817504882812 65.20608520507812 88.05992126464844 64.98893737792969 87.57693481445312 C 62.3674201965332 81.74317932128906 58.12304306030273 76.76365661621094 52.71464157104492 73.17668914794922 L 52.15399169921875 72.80484771728516 L 52.67170333862305 72.37522888183594 C 55.94540023803711 69.65857696533203 58.64072036743164 66.19208526611328 60.46627044677734 62.35051727294922 C 62.34527206420898 58.39647674560547 63.29800033569336 54.17488861083984 63.29800033569336 49.80300140380859 C 63.29800033569336 48.71177673339844 62.41022109985352 47.82400512695312 61.31900024414062 47.82400512695312 M 61.31900024414062 47.32400512695312 C 62.68900299072266 47.32400512695312 63.79800033569336 48.43299865722656 63.79800033569336 49.80300140380859 C 63.79800033569336 58.80999755859375 59.72000122070312 67.17599487304688 52.99100112915039 72.75999450683594 C 58.40700149536133 76.35200500488281 62.76901245117188 81.41699981689453 65.44500732421875 87.37199401855469 C 66.00700378417969 88.62199401855469 65.44900512695312 90.08999633789062 64.19900512695312 90.64999389648438 C 63.86800003051758 90.79899597167969 63.52200317382812 90.86799621582031 63.18400192260742 90.86799621582031 C 62.23600006103516 90.86799621582031 61.33400344848633 90.32301330566406 60.92200088500977 89.406005859375 C 58.35000228881836 83.6820068359375 53.96600341796875 78.91800689697266 48.52100372314453 75.82600402832031 C 47.73200225830078 76.26701354980469 46.92800140380859 76.68701171875 46.09100341796875 77.05801391601562 C 45.76700210571289 77.20399475097656 45.42199325561523 77.27299499511719 45.08700180053711 77.27299499511719 C 44.13700103759766 77.27299499511719 43.23099517822266 76.72299957275391 42.82099914550781 75.802001953125 C 42.26399993896484 74.55000305175781 42.82500457763672 73.08399963378906 44.07799530029297 72.52700042724609 C 45.17600250244141 72.03900146484375 46.22199249267578 71.47499847412109 47.21900177001953 70.84600067138672 C 47.25400161743164 70.82500457763672 47.28400039672852 70.80300140380859 47.32000350952148 70.78401184082031 C 54.41600036621094 66.26699829101562 58.84100341796875 58.37699890136719 58.84100341796875 49.80300140380859 C 58.84100341796875 48.43299865722656 59.95100021362305 47.32400512695312 61.31900024414062 47.32400512695312 Z"/>
      </g>
      <g id="Path_886" data-name="Path 886" class="cls-1">
        <path class="cls-2" d="M 5.3319993019104 89.45100402832031 C 4.986519336700439 89.45100402832031 4.652279376983643 89.37168884277344 4.338549613952637 89.21527099609375 C 3.805169582366943 88.94923400878906 3.407519578933716 88.49137115478516 3.21886944770813 87.92603302001953 C 3.030519485473633 87.36160278320312 3.073389530181885 86.7578125 3.339569568634033 86.22588348388672 C 5.994699478149414 80.90869903564453 10.0646390914917 76.32432556152344 15.10946941375732 72.9681396484375 L 15.38916969299316 72.78205871582031 L 15.13061904907227 72.56758117675781 C 11.84149932861328 69.83906555175781 9.130939483642578 66.36203002929688 7.291959285736084 62.51236343383789 C 5.382949352264404 58.51611328125 4.414999485015869 54.23972320556641 4.414999485015869 49.802001953125 C 4.414999485015869 33.49925231933594 17.67779922485352 20.23600196838379 33.97999954223633 20.23600196838379 L 39.1343994140625 20.33096122741699 C 40.36248779296875 20.35428237915039 41.34347915649414 21.37236213684082 41.32104110717773 22.60043144226074 C 41.29787063598633 23.8071117401123 40.29882049560547 24.78900146484375 39.09399795532227 24.78900146484375 L 39.04800033569336 24.78900146484375 L 33.93964004516602 24.69404220581055 C 20.11520004272461 24.69602203369141 8.871999740600586 35.95987319946289 8.871999740600586 49.80300140380859 C 8.871999740600586 61.24105072021484 16.59343910217285 71.23519897460938 27.64914894104004 74.10697174072266 C 28.83786964416504 74.41535949707031 29.55459976196289 75.63531494140625 29.24693870544434 76.82648468017578 C 28.99169921875 77.80873107910156 28.10509872436523 78.49500274658203 27.09099960327148 78.49500274658203 C 26.90044021606445 78.49500274658203 26.71133041381836 78.47054290771484 26.52890968322754 78.42230987548828 C 24.10063934326172 77.79074096679688 21.75224876403809 76.84590148925781 19.5479793548584 75.61378479003906 L 19.42483901977539 75.54495239257812 L 19.30226898193359 75.61476898193359 C 16.74884033203125 77.06919097900391 14.42125988006592 78.8916015625 12.38417911529541 81.0313720703125 C 10.33464908599854 83.18423461914062 8.633279800415039 85.6019287109375 7.327329635620117 88.21732330322266 C 6.947709560394287 88.97830963134766 6.183159351348877 89.45100402832031 5.3319993019104 89.45100402832031 Z"/>
        <path class="cls-3" d="M 5.3319993019104 89.20100402832031 C 6.087759494781494 89.20100402832031 6.766589641571045 88.78134918212891 7.1036696434021 88.10562896728516 C 8.420719146728516 85.46799468994141 10.13642978668213 83.02986145019531 12.20310974121094 80.85899353027344 C 14.25701904296875 78.70154571533203 16.60388946533203 76.86404418945312 19.17852973937988 75.39754486083984 L 19.4236888885498 75.25790405273438 L 19.66996002197266 75.39556121826172 C 21.85564994812012 76.61729431152344 24.18416976928711 77.55415344238281 26.59281921386719 78.18061065673828 C 26.7543888092041 78.22334289550781 26.92199897766113 78.24500274658203 27.09099960327148 78.24500274658203 C 27.99127006530762 78.24500274658203 28.77836036682129 77.63568115234375 29.00489044189453 76.76396179199219 C 29.27810859680176 75.70612335205078 28.64179992675781 74.62277221679688 27.58629035949707 74.34894561767578 C 16.4203987121582 71.44855499267578 8.621999740600586 61.35489273071289 8.621999740600586 49.80300140380859 C 8.621999740600586 35.82204055786133 19.97732925415039 24.44604110717773 33.93492889404297 24.44400215148926 L 33.93960952758789 24.44400215148926 L 33.94429016113281 24.444091796875 L 39.05244445800781 24.53900146484375 L 39.09399795532227 24.53900146484375 C 40.16358947753906 24.53900146484375 41.05051040649414 23.6671028137207 41.07107925415039 22.59586143493652 C 41.09101104736328 21.50553131103516 40.22002029418945 20.60162162780762 39.12979125976562 20.5809211730957 L 33.97518920898438 20.48600387573242 C 17.81354713439941 20.48921394348145 4.664999485015869 33.63907623291016 4.664999485015869 49.802001953125 C 4.664999485015869 54.20213317871094 5.624729633331299 58.4422607421875 7.517539501190186 62.40460205078125 C 9.341029167175293 66.22183227539062 12.02877998352051 69.66960144042969 15.29022979736328 72.37517547607422 L 15.80733966827393 72.80414581298828 L 15.24794960021973 73.17628479003906 C 10.2393798828125 76.50833129882812 6.198909282684326 81.05936431884766 3.56313943862915 86.33775329589844 C 3.326869487762451 86.80991363525391 3.288819551467896 87.34587097167969 3.45600962638855 87.84690093994141 C 3.623499393463135 88.34883117675781 3.976569414138794 88.75535583496094 4.450099468231201 88.99153137207031 C 4.728869438171387 89.13053131103516 5.025579452514648 89.20100402832031 5.3319993019104 89.20100402832031 M 5.3319993019104 89.70100402832031 C 4.958999633789062 89.70100402832031 4.5819993019104 89.61600494384766 4.226999282836914 89.43900299072266 C 3.001999616622925 88.8280029296875 2.502999544143677 87.33900451660156 3.115999460220337 86.11399841308594 C 5.810999393463135 80.71699523925781 9.957999229431152 76.09499359130859 14.9709997177124 72.75999450683594 C 8.299999237060547 67.22600555419922 4.164999485015869 58.90700149536133 4.164999485015869 49.802001953125 C 4.164999485015869 33.36200332641602 17.53899955749512 19.98600196838379 33.97999954223633 19.98600196838379 L 39.13899993896484 20.08100128173828 C 40.50799942016602 20.10700225830078 41.59600067138672 21.23699188232422 41.57099914550781 22.60500144958496 C 41.54499816894531 23.9590015411377 40.44200134277344 25.03900146484375 39.09399795532227 25.03900146484375 C 39.07799911499023 25.03900146484375 39.0620002746582 25.03900146484375 39.04800033569336 25.03900146484375 L 33.93500137329102 24.94400215148926 C 20.27299880981445 24.94600296020508 9.121999740600586 36.09699249267578 9.121999740600586 49.80300140380859 C 9.121999740600586 61.12800216674805 16.76700019836426 71.02199554443359 27.71199989318848 73.86500549316406 C 29.03800010681152 74.20899963378906 29.83199882507324 75.56100463867188 29.48900032043457 76.88899993896484 C 29.19899940490723 78.0050048828125 28.1919994354248 78.74500274658203 27.09099960327148 78.74500274658203 C 26.88299942016602 78.74500274658203 26.67300033569336 78.71900177001953 26.46500015258789 78.66400146484375 C 23.96199989318848 78.01300048828125 21.60499954223633 77.05000305175781 19.42599868774414 75.83200073242188 C 14.35399913787842 78.72100067138672 10.1609992980957 83.10200500488281 7.550999641418457 88.32900238037109 C 7.116999626159668 89.19900512695312 6.239999294281006 89.70100402832031 5.3319993019104 89.70100402832031 Z"/>
      </g>
      <g id="Path_887" data-name="Path 887" class="cls-1">
        <path class="cls-2" d="M 34.08100128173828 60.2859992980957 C 30.43313217163086 60.2859992980957 27.28875160217285 58.83671951293945 25.56245231628418 57.48041915893555 C 24.59748077392578 56.72010803222656 24.42920112609863 55.31591033935547 25.18760108947754 54.35042953491211 C 25.6143913269043 53.80921936035156 26.25500106811523 53.49860763549805 26.94489097595215 53.49860763549805 C 27.44203186035156 53.49860763549805 27.91256141662598 53.66003036499023 28.30562210083008 53.96541976928711 C 28.40561103820801 54.04240798950195 30.77199172973633 55.83518981933594 34.06121063232422 55.83496856689453 C 36.04304122924805 55.8348274230957 37.94784164428711 55.18924713134766 39.72270965576172 53.9161376953125 C 40.1031608581543 53.64253997802734 40.55131149291992 53.49800872802734 41.01897048950195 53.49800872802734 C 41.7377815246582 53.49800872802734 42.41624069213867 53.8455696105957 42.8338623046875 54.42771911621094 C 43.55015182495117 55.42549896240234 43.31968307495117 56.82114791870117 42.32017135620117 57.53893661499023 C 39.78082275390625 59.36174011230469 37.00875091552734 60.2859992980957 34.08100128173828 60.2859992980957 Z"/>
        <path class="cls-3" d="M 34.08100128173828 60.0359992980957 C 36.95537185668945 60.0359992980957 39.67840194702148 59.12752914428711 42.17435073852539 57.33586883544922 C 43.06191253662109 56.69849014282227 43.26668167114258 55.45932769775391 42.63072967529297 54.57344818115234 C 42.25994110107422 54.05658721923828 41.65742111206055 53.74800872802734 41.01897048950195 53.74800872802734 C 40.60401153564453 53.74800872802734 40.20634078979492 53.87627029418945 39.86843109130859 54.11928939819336 C 38.05021286010742 55.42347717285156 36.09638214111328 56.0848274230957 34.06122970581055 56.08496856689453 C 30.68779182434082 56.08518981933594 28.25585174560547 54.24261856079102 28.15223121643066 54.1628303527832 C 27.80345153808594 53.89184951782227 27.38596153259277 53.74860763549805 26.94489097595215 53.74860763549805 C 26.33205223083496 53.74860763549805 25.76299095153809 54.02451705932617 25.38420104980469 54.50485992431641 C 24.71083068847656 55.36209869384766 24.86032104492188 56.60892868041992 25.7169017791748 57.28382873535156 C 27.41033172607422 58.61431884765625 30.49688148498535 60.0359992980957 34.08100128173828 60.0359992980957 M 34.08100128173828 60.5359992980957 C 30.28800201416016 60.5359992980957 27.0830020904541 58.99300003051758 25.40800094604492 57.67699813842773 C 24.3330020904541 56.82999801635742 24.14500045776367 55.27299880981445 24.99100112915039 54.19599914550781 C 25.48098564147949 53.57465362548828 26.20939445495605 53.24860763549805 26.94489097595215 53.24860763549805 C 27.47479248046875 53.24860763549805 28.00841331481934 53.41791152954102 28.4590015411377 53.76799774169922 C 28.60735511779785 53.88221740722656 30.89411735534668 55.58518218994141 34.06119918823242 55.58496475219727 C 35.71879959106445 55.58485412597656 37.61798477172852 55.11818695068359 39.57699966430664 53.71299743652344 C 40.01376724243164 53.39889144897461 40.51855850219727 53.24801254272461 41.01896667480469 53.24801254272461 C 41.79145431518555 53.24801254272461 42.55332565307617 53.60776138305664 43.03700256347656 54.28199768066406 C 43.83600234985352 55.39499664306641 43.58000183105469 56.94199752807617 42.46599960327148 57.74199676513672 C 39.59900283813477 59.79999923706055 36.70000076293945 60.5359992980957 34.08100128173828 60.5359992980957 Z"/>
      </g>
      <g id="Path_888" data-name="Path 888" class="cls-1">
        <path class="cls-2" d="M 26.4630012512207 46.59600067138672 C 24.96980094909668 46.59600067138672 23.75500106811523 45.38120269775391 23.75500106811523 43.88800048828125 C 23.75500106811523 42.39369964599609 24.96980094909668 41.17800140380859 26.4630012512207 41.17800140380859 C 27.95509147644043 41.17800140380859 29.16900253295898 42.39369964599609 29.16900253295898 43.88800048828125 C 29.16900253295898 45.38120269775391 27.95509147644043 46.59600067138672 26.4630012512207 46.59600067138672 Z"/>
        <path class="cls-3" d="M 26.4630012512207 46.34600067138672 C 27.81724166870117 46.34600067138672 28.91900253295898 45.24335098266602 28.91900253295898 43.88800048828125 C 28.91900253295898 42.53155136108398 27.81724166870117 41.42800140380859 26.4630012512207 41.42800140380859 C 25.10765266418457 41.42800140380859 24.00500106811523 42.53155136108398 24.00500106811523 43.88800048828125 C 24.00500106811523 45.24335098266602 25.10765266418457 46.34600067138672 26.4630012512207 46.34600067138672 M 26.4630012512207 46.84600067138672 C 24.8330020904541 46.84600067138672 23.50500106811523 45.51700210571289 23.50500106811523 43.88800048828125 C 23.50500106811523 42.25600051879883 24.8330020904541 40.92800140380859 26.4630012512207 40.92800140380859 C 28.09300231933594 40.92800140380859 29.41900253295898 42.25600051879883 29.41900253295898 43.88800048828125 C 29.41900253295898 45.51800155639648 28.09300231933594 46.84600067138672 26.4630012512207 46.84600067138672 Z"/>
      </g>
      <g id="Path_889" data-name="Path 889" class="cls-1">
        <path class="cls-2" d="M 41.50199890136719 46.59600067138672 C 40.0088005065918 46.59600067138672 38.79399871826172 45.38120269775391 38.79399871826172 43.88800048828125 C 38.79399871826172 42.39369964599609 40.0088005065918 41.17800140380859 41.50199890136719 41.17800140380859 C 42.99519729614258 41.17800140380859 44.20999908447266 42.39369964599609 44.20999908447266 43.88800048828125 C 44.20999908447266 45.38120269775391 42.99519729614258 46.59600067138672 41.50199890136719 46.59600067138672 Z"/>
        <path class="cls-3" d="M 41.50199890136719 46.34600067138672 C 42.85734939575195 46.34600067138672 43.95999908447266 45.24335098266602 43.95999908447266 43.88800048828125 C 43.95999908447266 42.53155136108398 42.85734939575195 41.42800140380859 41.50199890136719 41.42800140380859 C 40.14664840698242 41.42800140380859 39.04399871826172 42.53155136108398 39.04399871826172 43.88800048828125 C 39.04399871826172 45.24335098266602 40.14664840698242 46.34600067138672 41.50199890136719 46.34600067138672 M 41.50199890136719 46.84600067138672 C 39.86999893188477 46.84600067138672 38.54399871826172 45.51700210571289 38.54399871826172 43.88800048828125 C 38.54399871826172 42.25600051879883 39.86999893188477 40.92800140380859 41.50199890136719 40.92800140380859 C 43.13399887084961 40.92800140380859 44.45999908447266 42.25600051879883 44.45999908447266 43.88800048828125 C 44.45999908447266 45.51800155639648 43.13399887084961 46.84600067138672 41.50199890136719 46.84600067138672 Z"/>
      </g>
      <g id="Path_890" data-name="Path 890" class="cls-1">
        <path class="cls-2" d="M 66.60400390625 32.15299987792969 C 65.37493133544922 32.15299987792969 64.375 31.15262985229492 64.375 29.92300033569336 L 64.375 24.55599975585938 L 64.375 24.30599975585938 L 64.125 24.30599975585938 L 58.76100158691406 24.30599975585938 C 57.5313720703125 24.30599975585938 56.53100204467773 23.30607032775879 56.53100204467773 22.07699966430664 C 56.53100204467773 20.84792900085449 57.5313720703125 19.84799957275391 58.76100158691406 19.84799957275391 L 64.125 19.84799957275391 L 64.375 19.84799957275391 L 64.375 19.59799957275391 L 64.375 14.23199939727783 C 64.375 13.00236892700195 65.37493133544922 12.0019998550415 66.60400390625 12.0019998550415 C 67.83252716064453 12.0019998550415 68.83200073242188 13.00236892700195 68.83200073242188 14.23199939727783 L 68.83200073242188 19.59799957275391 L 68.83200073242188 19.84799957275391 L 69.08200073242188 19.84799957275391 L 74.44999694824219 19.84799957275391 C 75.6790771484375 19.84799957275391 76.67900085449219 20.84792900085449 76.67900085449219 22.07699966430664 C 76.67900085449219 23.30607032775879 75.6790771484375 24.30599975585938 74.44999694824219 24.30599975585938 L 69.08200073242188 24.30599975585938 L 68.83200073242188 24.30599975585938 L 68.83200073242188 24.55599975585938 L 68.83200073242188 29.92300033569336 C 68.83200073242188 31.15262985229492 67.83252716064453 32.15299987792969 66.60400390625 32.15299987792969 Z"/>
        <path class="cls-3" d="M 66.60400390625 31.90299987792969 C 67.69467163085938 31.90299987792969 68.58200073242188 31.01478004455566 68.58200073242188 29.92300033569336 L 68.58200073242188 24.55599975585938 L 68.58200073242188 24.05599975585938 L 69.08200073242188 24.05599975585938 L 74.44999694824219 24.05599975585938 C 75.54122161865234 24.05599975585938 76.42900085449219 23.1682186126709 76.42900085449219 22.07699966430664 C 76.42900085449219 20.98577880859375 75.54122161865234 20.09799957275391 74.44999694824219 20.09799957275391 L 69.08200073242188 20.09799957275391 L 68.58200073242188 20.09799957275391 L 68.58200073242188 19.59799957275391 L 68.58200073242188 14.23199939727783 C 68.58200073242188 13.14021968841553 67.69467163085938 12.2519998550415 66.60400390625 12.2519998550415 C 65.51278686523438 12.2519998550415 64.625 13.14021968841553 64.625 14.23199939727783 L 64.625 19.59799957275391 L 64.625 20.09799957275391 L 64.125 20.09799957275391 L 58.76100158691406 20.09799957275391 C 57.66922378540039 20.09799957275391 56.78100204467773 20.98577880859375 56.78100204467773 22.07699966430664 C 56.78100204467773 23.1682186126709 57.66922378540039 24.05599975585938 58.76100158691406 24.05599975585938 L 64.125 24.05599975585938 L 64.625 24.05599975585938 L 64.625 24.55599975585938 L 64.625 29.92300033569336 C 64.625 31.01478004455566 65.51278686523438 31.90299987792969 66.60400390625 31.90299987792969 M 66.60400390625 32.40299987792969 C 65.23400115966797 32.40299987792969 64.125 31.29299926757812 64.125 29.92300033569336 L 64.125 24.55599975585938 L 58.76100158691406 24.55599975585938 C 57.3910026550293 24.55599975585938 56.28100204467773 23.44699859619141 56.28100204467773 22.07699966430664 C 56.28100204467773 20.70699882507324 57.3910026550293 19.59799957275391 58.76100158691406 19.59799957275391 L 64.125 19.59799957275391 L 64.125 14.23199939727783 C 64.125 12.86199951171875 65.23400115966797 11.7519998550415 66.60400390625 11.7519998550415 C 67.97299957275391 11.7519998550415 69.08200073242188 12.86199951171875 69.08200073242188 14.23199939727783 L 69.08200073242188 19.59799957275391 L 74.44999694824219 19.59799957275391 C 75.81999969482422 19.59799957275391 76.92900085449219 20.70699882507324 76.92900085449219 22.07699966430664 C 76.92900085449219 23.44699859619141 75.81999969482422 24.55599975585938 74.44999694824219 24.55599975585938 L 69.08200073242188 24.55599975585938 L 69.08200073242188 29.92300033569336 C 69.08200073242188 31.29299926757812 67.97299957275391 32.40299987792969 66.60400390625 32.40299987792969 Z"/>
      </g>
    </g>
  </g>
</svg>
