<svg xmlns="http://www.w3.org/2000/svg" viewBox="0 0 29.842 43.293">
  <defs>
    <style>
      .cls-1 {
        fill: #b5b5b5;
        stroke: #b5b5b5;
      }
    </style>
  </defs>
  <g id="noun_Address_2085423" transform="translate(-19.5 -5.5)">
    <g id="Group_305" data-name="Group 305" transform="translate(20 6)">
      <path id="Path_901" data-name="Path 901" class="cls-1" d="M34.421,6A14.391,14.391,0,0,0,20.6,24.506a36.211,36.211,0,0,0,2.644,5.663c1.281,2.392,2.852,5.148,4.386,7.766,3.07,5.235,5.979,9.914,5.979,9.914a.962.962,0,0,0,1.622,0s2.909-4.679,5.979-9.914c1.535-2.617,3.105-5.374,4.386-7.766a36.211,36.211,0,0,0,2.644-5.663A14.391,14.391,0,0,0,34.421,6Zm0,1.923A12.5,12.5,0,0,1,46.409,23.965a38.551,38.551,0,0,1-2.494,5.287c-1.261,2.355-2.829,5.1-4.356,7.706-2.637,4.5-4.5,7.482-5.138,8.517-.639-1.034-2.5-4.02-5.138-8.517-1.527-2.6-3.1-5.351-4.356-7.706a38.55,38.55,0,0,1-2.494-5.287A12.5,12.5,0,0,1,34.421,7.923Zm0,5.768a6.729,6.729,0,1,0,6.73,6.729A6.744,6.744,0,0,0,34.421,13.691Zm0,1.923a4.807,4.807,0,1,1-4.807,4.807A4.792,4.792,0,0,1,34.421,15.613Z" transform="translate(-20 -6)"/>
    </g>
  </g>
</svg>
