<svg xmlns="http://www.w3.org/2000/svg" viewBox="0 0 30.799 43.071">
  <defs>
    <style>
      .cls-1 {
        fill: #b5b5b5;
        stroke: #b5b5b5;
      }
    </style>
  </defs>
  <g id="password" transform="translate(-4.323 -1.5)">
    <path id="Path_902" data-name="Path 902" class="cls-1" d="M30.24,22.047V12.518a10.518,10.518,0,1,0-21.035,0v9.529a12.621,12.621,0,0,0,8.414,22.024h4.207A12.621,12.621,0,0,0,30.24,22.047ZM11.308,12.518a8.414,8.414,0,1,1,16.828,0v8.014a12.621,12.621,0,0,0-6.311-1.7H17.619a12.621,12.621,0,0,0-6.311,1.7Zm10.518,29.45H17.619a10.518,10.518,0,1,1,0-21.035h4.207a10.518,10.518,0,0,1,0,21.035Zm-2.1-16.828a6.311,6.311,0,1,0,6.311,6.311A6.311,6.311,0,0,0,19.722,25.139Zm0,10.518A4.207,4.207,0,1,1,23.93,31.45,4.207,4.207,0,0,1,19.722,35.657Z" transform="translate(0 0)"/>
  </g>
</svg>
