<svg xmlns="http://www.w3.org/2000/svg" viewBox="0 0 40 40">
  <defs>
    <style>
      .cls-1 {
        fill: none;
        fill-rule: evenodd;
      }

      .cls-2 {
        fill: #b5b5b5;
      }
    </style>
  </defs>
  <g id="portal" transform="translate(0)">
    <g id="Group_312" data-name="Group 312">
      <g id="Group_311" data-name="Group 311">
        <path id="Path_908" data-name="Path 908" class="cls-1" d="M0,40V0H40V40Z"/>
        <path id="Path_909" data-name="Path 909" class="cls-2" d="M4.383,0H35.617a4.442,4.442,0,0,1,3.107,1.275A4.442,4.442,0,0,1,40,4.383V35.617A4.355,4.355,0,0,1,35.617,40H4.383a4.442,4.442,0,0,1-3.107-1.275A4.442,4.442,0,0,1,0,35.617V4.383A4.442,4.442,0,0,1,1.275,1.275,4.442,4.442,0,0,1,4.383,0ZM22.817,26.041l3.061,3.084a1.246,1.246,0,0,1-1.762,1.762L21.055,27.8l-2.62,2.62a1.246,1.246,0,0,1-1.762,0,1.212,1.212,0,0,1-.348-.626L13.8,20.313a1.215,1.215,0,0,1,.881-1.507,1.035,1.035,0,0,1,.649,0l9.53,2.551a1.229,1.229,0,0,1,.881,1.53,1.356,1.356,0,0,1-.325.557Zm-3.362-3.548-2.69-.719L18.2,27.13l1.948-1.971h.023l1.948-1.948-2.667-.719ZM12.5,5.009h0a1.247,1.247,0,0,1,1.252,1.252h0A1.242,1.242,0,0,1,12.5,7.49h0a1.242,1.242,0,0,1-1.252-1.229h0A1.247,1.247,0,0,1,12.5,5.009Zm3.757,0h15A1.262,1.262,0,0,1,32.51,6.261h0A1.257,1.257,0,0,1,31.258,7.49h-15A1.242,1.242,0,0,1,15,6.261h0a1.247,1.247,0,0,1,1.252-1.252Zm-7.513,0h0A1.247,1.247,0,0,1,9.994,6.261h0A1.242,1.242,0,0,1,8.742,7.49h0A1.257,1.257,0,0,1,7.49,6.261h0A1.262,1.262,0,0,1,8.742,5.009ZM37.5,12.5H2.5V35.617a1.781,1.781,0,0,0,.557,1.322,1.781,1.781,0,0,0,1.322.557H35.617A1.9,1.9,0,0,0,37.5,35.617ZM4.614,2.5A2.029,2.029,0,0,0,3.13,3.13h0A2.029,2.029,0,0,0,2.5,4.614v5.38H37.5V4.614A2.029,2.029,0,0,0,36.87,3.13h0A2.029,2.029,0,0,0,35.386,2.5H4.614Z" transform="translate(0)"/>
      </g>
    </g>
  </g>
</svg>
