<svg xmlns="http://www.w3.org/2000/svg" viewBox="0 0 39.999 18.182">
  <defs>
    <style>
      .cls-1 {
        fill: #b5b5b5;
      }
    </style>
  </defs>
  <g id="privacy-feedback" transform="translate(-6 48.181) rotate(-90)">
    <g id="Group_310" data-name="Group 310" transform="translate(30 6)">
      <path id="Path_907" data-name="Path 907" class="cls-1" d="M32.642,6a3.144,3.144,0,0,0-1.676.611A2.806,2.806,0,0,0,30,8.642c0,.359,0,.744,0,1.065a2.806,2.806,0,0,0,.966,2.031,3.144,3.144,0,0,0,1.676.611.91.91,0,0,0,.1.014h3.622V14.2c-.781,0-1.585-.011-2.358-.014a3.144,3.144,0,0,0-1.676.611,2.806,2.806,0,0,0-.966,2.031c0,.348,0,.717,0,1.065a2.806,2.806,0,0,0,.966,2.031,3.144,3.144,0,0,0,1.676.611.909.909,0,0,0,.1.014h2.259v7.727a9.091,9.091,0,1,0,5.455,0c.036-6.593,0-12.826,0-19.176H41.8a3.218,3.218,0,0,0-.384-1.662A2.645,2.645,0,0,0,39.076,6H32.642Zm.142,1.818h6.307a.615.615,0,0,1,.71.44A3.141,3.141,0,0,1,40,9.1c.033,6.788.012,12.978,0,19.829a.938.938,0,0,0,.71.895,7.273,7.273,0,1,1-3.239,0,.937.937,0,0,0,.71-.881v-9.3a.945.945,0,0,0-.909-.909H34.19a1.46,1.46,0,0,1-.724-.227c-.128-.1-.247-.224-.284-.739v-.81c.037-.515.156-.637.284-.739A1.482,1.482,0,0,1,34.147,16l3.125.014a.945.945,0,0,0,.909-.909V11.454a.945.945,0,0,0-.909-.909H32.826a1.46,1.46,0,0,1-.724-.227c-.128-.1-.247-.224-.284-.739V8.77c.037-.515.156-.637.284-.739A1.482,1.482,0,0,1,32.784,7.818Zm6.307,23.636a5.455,5.455,0,1,0,5.455,5.455A5.468,5.468,0,0,0,39.091,31.454Zm0,1.818a3.636,3.636,0,1,1-3.636,3.636A3.623,3.623,0,0,1,39.091,33.272Z" transform="translate(-30 -6)"/>
    </g>
  </g>
</svg>
