<svg xmlns="http://www.w3.org/2000/svg" viewBox="0 0 32.728 40">
  <defs>
    <style>
      .cls-1 {
        fill: #b5b5b5;
      }

      .cls-2, .cls-3 {
        stroke: none;
      }

      .cls-3 {
        fill: #f8f9fb;
      }
    </style>
  </defs>
  <g id="profile" transform="translate(-64 171)">
    <g id="Group_314" data-name="Group 314" transform="translate(64 -171)">
      <g id="Group_313" data-name="Group 313" transform="translate(0 0)">
        <g id="Path_910" data-name="Path 910" class="cls-1" transform="translate(-32 -28)">
          <path class="cls-2" d="M 62.90909576416016 67.80000305175781 C 62.01682662963867 67.80000305175781 61.29091644287109 67.07408905029297 61.29091644287109 66.18182373046875 C 61.29091644287109 62.72882080078125 59.94624710083008 59.48249816894531 57.50460433959961 57.04085922241211 C 55.06296539306641 54.59922027587891 51.81663513183594 53.25455093383789 48.3636360168457 53.25455093383789 C 44.91063690185547 53.25455093383789 41.66431427001953 54.59922027587891 39.22267532348633 57.04085922241211 C 36.78103637695312 59.48249816894531 35.43636703491211 62.72882080078125 35.43636703491211 66.18182373046875 C 35.43636703491211 67.07408905029297 34.71045684814453 67.80000305175781 33.81818771362305 67.80000305175781 C 32.9259147644043 67.80000305175781 32.19999694824219 67.07408905029297 32.19999694824219 66.18182373046875 C 32.19999694824219 61.86436080932617 33.88130569458008 57.8053092956543 36.9342155456543 54.75239944458008 C 39.98712539672852 51.69948959350586 44.04617691040039 50.01818084716797 48.3636360168457 50.01818084716797 C 52.68109512329102 50.01818084716797 56.74014663696289 51.69948959350586 59.79305648803711 54.75239944458008 C 62.84596633911133 57.8053092956543 64.52727508544922 61.86436080932617 64.52727508544922 66.18182373046875 C 64.52727508544922 67.07408905029297 63.80136489868164 67.80000305175781 62.90909576416016 67.80000305175781 Z M 48.3636360168457 47.79999923706055 C 42.95989608764648 47.79999923706055 38.56363677978516 43.40373992919922 38.56363677978516 38 C 38.56363677978516 32.59626007080078 42.95989608764648 28.20000076293945 48.3636360168457 28.20000076293945 C 53.76737594604492 28.20000076293945 58.16363525390625 32.59626007080078 58.16363525390625 38 C 58.16363525390625 43.40373992919922 53.76737594604492 47.79999923706055 48.3636360168457 47.79999923706055 Z M 48.3636360168457 31.43635940551758 C 44.74443435668945 31.43635940551758 41.80000686645508 34.38079833984375 41.80000686645508 38 C 41.80000686645508 41.61920166015625 44.74443435668945 44.56364059448242 48.3636360168457 44.56364059448242 C 51.98283767700195 44.56364059448242 54.92727661132812 41.61920166015625 54.92727661132812 38 C 54.92727661132812 34.38079833984375 51.98283767700195 31.43635940551758 48.3636360168457 31.43635940551758 Z"/>
          <path class="cls-3" d="M 62.90909576416016 67.59999847412109 C 63.69108581542969 67.59999847412109 64.32727813720703 66.96381378173828 64.32727813720703 66.18182373046875 C 64.32727813720703 61.91778182983398 62.66676712036133 57.90895843505859 59.65163421630859 54.89382934570312 C 56.63649749755859 51.87868881225586 52.62767791748047 50.21818161010742 48.3636360168457 50.21818161010742 C 44.09959411621094 50.21818161010742 40.09077453613281 51.87868881225586 37.07564544677734 54.89382934570312 C 34.06050491333008 57.90895843505859 32.39999771118164 61.91778182983398 32.39999771118164 66.18182373046875 C 32.39999771118164 66.96381378173828 33.03619766235352 67.59999847412109 33.81818771362305 67.59999847412109 C 34.60017776489258 67.59999847412109 35.23636627197266 66.96381378173828 35.23636627197266 66.18182373046875 C 35.23636627197266 62.67539978027344 36.60183715820312 59.37884902954102 39.08125686645508 56.89944076538086 C 41.56066513061523 54.42002105712891 44.85721588134766 53.05455017089844 48.3636360168457 53.05455017089844 C 51.87005615234375 53.05455017089844 55.16660690307617 54.42002105712891 57.64602661132812 56.89944076538086 C 60.12543487548828 59.37884902954102 61.49091720581055 62.67539978027344 61.49091720581055 66.18182373046875 C 61.49091720581055 66.96381378173828 62.12710571289062 67.59999847412109 62.90909576416016 67.59999847412109 M 48.3636360168457 47.59999847412109 C 53.65709686279297 47.59999847412109 57.9636344909668 43.29346084594727 57.9636344909668 38 C 57.9636344909668 32.70653915405273 53.65709686279297 28.39999961853027 48.3636360168457 28.39999961853027 C 43.07017517089844 28.39999961853027 38.76363754272461 32.70653915405273 38.76363754272461 38 C 38.76363754272461 43.29346084594727 43.07017517089844 47.59999847412109 48.3636360168457 47.59999847412109 M 48.3636360168457 31.23636054992676 C 52.09311676025391 31.23636054992676 55.12727737426758 34.2705192565918 55.12727737426758 38 C 55.12727737426758 41.7294807434082 52.09311676025391 44.76364135742188 48.3636360168457 44.76364135742188 C 44.6341552734375 44.76364135742188 41.60000610351562 41.7294807434082 41.60000610351562 38 C 41.60000610351562 34.2705192565918 44.6341552734375 31.23636054992676 48.3636360168457 31.23636054992676 M 62.90909576416016 68 C 61.90494537353516 68 61.09091567993164 67.18596649169922 61.09091567993164 66.18182373046875 C 61.09091567993164 59.15274047851562 55.39271545410156 53.45455169677734 48.3636360168457 53.45455169677734 C 41.33455657958984 53.45455169677734 35.63636779785156 59.15274047851562 35.63636779785156 66.18182373046875 C 35.63636779785156 67.18596649169922 34.82233428955078 68 33.81818771362305 68 C 32.81402587890625 68 31.99999618530273 67.18596649169922 31.99999618530273 66.18182373046875 C 31.99999618530273 57.14443969726562 39.32625579833984 49.81818008422852 48.3636360168457 49.81818008422852 C 57.40102767944336 49.81818008422852 64.72727966308594 57.14443969726562 64.72727966308594 66.18182373046875 C 64.72727966308594 67.18596649169922 63.91324615478516 68 62.90909576416016 68 Z M 48.3636360168457 48 C 42.84079742431641 48 38.3636360168457 43.52285003662109 38.3636360168457 38 C 38.3636360168457 32.47714996337891 42.84079742431641 28 48.3636360168457 28 C 53.8864860534668 28 58.3636360168457 32.47714996337891 58.3636360168457 38 C 58.3636360168457 43.52285003662109 53.8864860534668 48 48.3636360168457 48 Z M 48.3636360168457 31.63636016845703 C 44.84909439086914 31.63636016845703 42.00000762939453 34.48545837402344 42.00000762939453 38 C 42.00000762939453 41.51454162597656 44.84909439086914 44.36363983154297 48.3636360168457 44.36363983154297 C 51.87817764282227 44.36363983154297 54.72727584838867 41.51454162597656 54.72727584838867 38 C 54.72727584838867 34.48545837402344 51.87817764282227 31.63636016845703 48.3636360168457 31.63636016845703 Z"/>
        </g>
      </g>
    </g>
  </g>
</svg>
