<svg xmlns="http://www.w3.org/2000/svg" viewBox="0 0 32.854 42.671">
  <defs>
    <style>
      .cls-1 {
        fill: #b5b5b5;
        stroke: #b5b5b5;
        stroke-width: 0.6px;
      }
    </style>
  </defs>
  <g id="user-info" transform="translate(0.3 0.3)">
    <g id="Group_296" data-name="Group 296" transform="translate(0 0)">
      <g id="Group_295" data-name="Group 295">
        <path id="Path_891" data-name="Path 891" class="cls-1" d="M32.254,39.967V2.1a2.1,2.1,0,0,0-2.1-2.1H4.908A2.1,2.1,0,0,0,2.8,2.1v2.8H.7a.7.7,0,1,0,0,1.4H2.8v6.311H.7a.7.7,0,1,0,0,1.4H2.8v6.311H.7a.7.7,0,0,0,0,1.4H2.8v6.311H.7a.7.7,0,0,0,0,1.4H2.8V35.76H.7a.7.7,0,1,0,0,1.4H2.8v2.8a2.1,2.1,0,0,0,2.1,2.1H30.151A2.1,2.1,0,0,0,32.254,39.967Zm-28.047,0V2.1a.7.7,0,0,1,.7-.7H30.151a.7.7,0,0,1,.7.7V39.967a.7.7,0,0,1-.7.7H4.908A.7.7,0,0,1,4.207,39.967Z" transform="translate(0 0)"/>
        <path id="Path_897" data-name="Path 897" class="cls-1" d="M22.506,19.817h1.4a3.51,3.51,0,0,0,3.506-3.506v-2.8A3.51,3.51,0,0,0,23.908,10h-1.4A3.51,3.51,0,0,0,19,13.506v2.8A3.51,3.51,0,0,0,22.506,19.817Zm-2.1-6.311a2.1,2.1,0,0,1,2.1-2.1h1.4a2.1,2.1,0,0,1,2.1,2.1v2.8a2.1,2.1,0,0,1-2.1,2.1h-1.4a2.1,2.1,0,0,1-2.1-2.1Z" transform="translate(-5.678 -3.988)"/>
        <path id="Path_898" data-name="Path 898" class="cls-1" d="M25.28,26H19.341A3.43,3.43,0,0,0,16,29.506v3.506a.7.7,0,0,0,1.4,0V29.506a2.029,2.029,0,0,1,1.939-2.1H25.28a2.029,2.029,0,0,1,1.939,2.1v2.8h-2.6a.7.7,0,0,0,0,1.4h3.3a.7.7,0,0,0,.7-.7V29.506A3.43,3.43,0,0,0,25.28,26Z" transform="translate(-4.781 -7.769)"/>
        <path id="Path_899" data-name="Path 899" class="cls-1" d="M27.92,42H16.7a.7.7,0,1,0,0,1.4H27.92a.7.7,0,1,0,0-1.4Z" transform="translate(-4.781 -12.55)"/>
        <path id="Path_900" data-name="Path 900" class="cls-1" d="M27.92,48H16.7a.7.7,0,1,0,0,1.4H27.92a.7.7,0,1,0,0-1.4Z" transform="translate(-4.781 -14.343)"/>
      </g>
    </g>
  </g>
</svg>
