<svg xmlns="http://www.w3.org/2000/svg" viewBox="0 0 29.543 43.092">
  <defs>
    <style>
      .cls-1, .cls-2 {
        fill: #b5b5b5;
      }

      .cls-2 {
        stroke: #b5b5b5;
        stroke-width: 0.8px;
        fill-rule: evenodd;
      }

      .cls-3, .cls-4 {
        stroke: none;
      }

      .cls-4 {
        fill: #f8f9fb;
      }
    </style>
  </defs>
  <g id="user-settings" transform="translate(-245.272 -1344)">
    <g id="profile" transform="translate(245.272 1344)">
      <g id="Group_314" data-name="Group 314" transform="translate(0 0)">
        <g id="Group_313" data-name="Group 313">
          <g id="Path_910" data-name="Path 910" class="cls-1" transform="translate(-32 -28)">
            <path class="cls-3" d="M 59.90170669555664 63.90807723999023 C 59.10698699951172 63.90807723999023 58.46042633056641 63.26152038574219 58.46042633056641 62.46680068969727 C 58.46042633056641 59.34457015991211 57.24456787109375 56.40922927856445 55.03681945800781 54.20148086547852 C 52.82906723022461 51.99372863769531 49.89371871948242 50.77787017822266 46.77148818969727 50.77787017822266 C 43.64925765991211 50.77787017822266 40.71391677856445 51.99372863769531 38.50616836547852 54.20148086547852 C 36.29841995239258 56.40922927856445 35.08255767822266 59.34457015991211 35.08255767822266 62.46680068969727 C 35.08255767822266 63.26152038574219 34.43599700927734 63.90807723999023 33.64127731323242 63.90807723999023 C 32.8465576171875 63.90807723999023 32.19999694824219 63.26152038574219 32.19999694824219 62.46680068969727 C 32.19999694824219 58.57461929321289 33.7156982421875 54.91539764404297 36.46788787841797 52.16320037841797 C 39.22007751464844 49.4110107421875 42.87929916381836 47.89530944824219 46.77148818969727 47.89530944824219 C 50.66367721557617 47.89530944824219 54.32289886474609 49.4110107421875 57.07508850097656 52.16320037841797 C 59.82727813720703 54.91539764404297 61.34297943115234 58.57461929321289 61.34297943115234 62.46680068969727 C 61.34297943115234 63.26152038574219 60.69642639160156 63.90807723999023 59.90170669555664 63.90807723999023 Z M 46.77148818969727 45.85403823852539 C 41.90424728393555 45.85403823852539 37.9444694519043 41.89426040649414 37.9444694519043 37.02701950073242 C 37.9444694519043 32.1597785949707 41.90424728393555 28.19999885559082 46.77148818969727 28.19999885559082 C 51.63872909545898 28.19999885559082 55.59850692749023 32.1597785949707 55.59850692749023 37.02701950073242 C 55.59850692749023 41.89426040649414 51.63872909545898 45.85403823852539 46.77148818969727 45.85403823852539 Z M 46.77148818969727 31.08254814147949 C 43.49369812011719 31.08254814147949 40.8270263671875 33.74922943115234 40.8270263671875 37.02701950073242 C 40.8270263671875 40.3048095703125 43.49369812011719 42.97148895263672 46.77148818969727 42.97148895263672 C 50.04927825927734 42.97148895263672 52.71595764160156 40.3048095703125 52.71595764160156 37.02701950073242 C 52.71595764160156 33.74922943115234 50.04927825927734 31.08254814147949 46.77148818969727 31.08254814147949 Z"/>
            <path class="cls-4" d="M 59.90170669555664 63.70808029174805 C 60.58614730834961 63.70808029174805 61.14297866821289 63.15123748779297 61.14297866821289 62.46680068969727 C 61.14297866821289 58.6280403137207 59.64807891845703 55.01903915405273 56.93367004394531 52.30463027954102 C 54.2192497253418 49.5902099609375 50.61024856567383 48.09531021118164 46.77148818969727 48.09531021118164 C 42.9327278137207 48.09531021118164 39.32372665405273 49.5902099609375 36.60930633544922 52.30463027954102 C 33.8948974609375 55.01903915405273 32.39999771118164 58.6280403137207 32.39999771118164 62.46680068969727 C 32.39999771118164 63.15123748779297 32.95683670043945 63.70808029174805 33.64127731323242 63.70808029174805 C 34.32571792602539 63.70808029174805 34.8825569152832 63.15123748779297 34.8825569152832 62.46680068969727 C 34.8825569152832 59.2911491394043 36.11921691894531 56.30558013916016 38.36474990844727 54.06005859375 C 40.61026763916016 51.81452941894531 43.5958366394043 50.5778694152832 46.77148818969727 50.5778694152832 C 49.94713973999023 50.5778694152832 52.93271636962891 51.81452941894531 55.17823791503906 54.06005859375 C 57.42375946044922 56.30558013916016 58.66042709350586 59.2911491394043 58.66042709350586 62.46680068969727 C 58.66042709350586 63.15123748779297 59.21726989746094 63.70808029174805 59.90170669555664 63.70808029174805 M 46.77148818969727 45.65403747558594 C 51.52843856811523 45.65403747558594 55.39850997924805 41.78396987915039 55.39850997924805 37.02701950073242 C 55.39850997924805 32.27006912231445 51.52843856811523 28.39999961853027 46.77148818969727 28.39999961853027 C 42.0145378112793 28.39999961853027 38.14446640014648 32.27006912231445 38.14446640014648 37.02701950073242 C 38.14446640014648 41.78396987915039 42.0145378112793 45.65403747558594 46.77148818969727 45.65403747558594 M 46.77148818969727 30.88254928588867 C 50.1595573425293 30.88254928588867 52.91595840454102 33.63895034790039 52.91595840454102 37.02701950073242 C 52.91595840454102 40.41508865356445 50.1595573425293 43.17148971557617 46.77148818969727 43.17148971557617 C 43.38341903686523 43.17148971557617 40.62702941894531 40.41508865356445 40.62702941894531 37.02701950073242 C 40.62702941894531 33.63895034790039 43.38341903686523 30.88254928588867 46.77148818969727 30.88254928588867 M 59.90170669555664 64.10807800292969 C 58.99525833129883 64.10807800292969 58.26042938232422 63.37326049804688 58.26042938232422 62.46680068969727 C 58.26042938232422 56.12163925170898 53.11665725708008 50.97786712646484 46.77148818969727 50.97786712646484 C 40.42632675170898 50.97786712646484 35.28255844116211 56.12163925170898 35.28255844116211 62.46680068969727 C 35.28255844116211 63.37326049804688 34.5477294921875 64.10807800292969 33.64127731323242 64.10807800292969 C 32.73482894897461 64.10807800292969 31.99999809265137 63.37326049804688 31.99999809265137 62.46680068969727 C 31.99999809265137 54.30873870849609 38.61341857910156 47.69530868530273 46.77148818969727 47.69530868530273 C 54.92955780029297 47.69530868530273 61.54297637939453 54.30873870849609 61.54297637939453 62.46680068969727 C 61.54297637939453 63.37326049804688 60.80815887451172 64.10807800292969 59.90170669555664 64.10807800292969 Z M 46.77148818969727 46.05403900146484 C 41.78600692749023 46.05403900146484 37.74446868896484 42.01250839233398 37.74446868896484 37.02701950073242 C 37.74446868896484 32.04153823852539 41.78600692749023 27.99999809265137 46.77148818969727 27.99999809265137 C 51.75697708129883 27.99999809265137 55.79850769042969 32.04153823852539 55.79850769042969 37.02701950073242 C 55.79850769042969 42.01250839233398 51.75697708129883 46.05403900146484 46.77148818969727 46.05403900146484 Z M 46.77148818969727 31.28254890441895 C 43.59890747070312 31.28254890441895 41.02702713012695 33.85443878173828 41.02702713012695 37.02701950073242 C 41.02702713012695 40.19960021972656 43.59890747070312 42.77148818969727 46.77148818969727 42.77148818969727 C 49.94406890869141 42.77148818969727 52.51595687866211 40.19960021972656 52.51595687866211 37.02701950073242 C 52.51595687866211 33.85443878173828 49.94406890869141 31.28254890441895 46.77148818969727 31.28254890441895 Z"/>
          </g>
        </g>
      </g>
    </g>
    <path id="Path_912" data-name="Path 912" class="cls-2" d="M42.063,49.271h.691l.021-.139a2.527,2.527,0,0,1,3.992-1.654l.113.083.489-.488-.23-.339a2.527,2.527,0,0,1,1.708-3.915l.424-.066v-.69l-.4-.078a2.527,2.527,0,0,1-1.561-3.976l.255-.347-.489-.488-.339.23A2.527,2.527,0,0,1,42.819,35.7l-.065-.424h-.691l-.129.671a2.526,2.526,0,0,1-3.9,1.614l-.566-.382-.488.488.254.346a2.527,2.527,0,0,1-1.561,3.976l-.4.078v.69l.424.066a2.528,2.528,0,0,1,1.708,3.915l-.23.339.489.489.347-.254a2.527,2.527,0,0,1,3.976,1.56ZM43.3,50.544H41.538a.637.637,0,0,1-.625-.517l-.176-.918a1.254,1.254,0,0,0-1.973-.775l-.787.577a.635.635,0,0,1-.826-.064L35.9,47.6a.636.636,0,0,1-.077-.806l.524-.774a1.254,1.254,0,0,0-.848-1.944l-.963-.148A.637.637,0,0,1,34,43.3V41.538a.637.637,0,0,1,.517-.625l.919-.177a1.255,1.255,0,0,0,.774-1.974l-.577-.786a.637.637,0,0,1,.063-.827L36.942,35.9a.639.639,0,0,1,.807-.076l1,.678a1.254,1.254,0,0,0,1.935-.8l.228-1.187A.637.637,0,0,1,41.538,34H43.3a.637.637,0,0,1,.629.54l.148.964a1.255,1.255,0,0,0,1.944.848l.774-.524a.638.638,0,0,1,.807.076l1.247,1.246a.637.637,0,0,1,.064.827l-.578.786a1.254,1.254,0,0,0,.774,1.973l.919.177a.637.637,0,0,1,.516.625V43.3a.637.637,0,0,1-.54.629l-.963.148a1.254,1.254,0,0,0-.848,1.944l.524.774a.635.635,0,0,1-.077.806l-1.246,1.246a.636.636,0,0,1-.827.064l-.553-.406a1.255,1.255,0,0,0-1.981.821l-.1.678a.637.637,0,0,1-.629.54Z" transform="translate(217.953 1336.148)"/>
  </g>
</svg>
